<svg width="451" height="54" viewBox="0 0 451 54" fill="none" xmlns="http://www.w3.org/2000/svg">
<path d="M24.1338 35.3092L33.7292 11.0923H45.8585V12.7538C44.9446 12.7538 44.1969 12.8508 43.6154 13.0446C43.0615 13.2108 42.6323 13.5292 42.3277 14C42.0231 14.4708 41.8154 15.1215 41.7046 15.9523C41.6215 16.7554 41.58 17.78 41.58 19.0262V35.1431C41.58 36.5277 41.6354 37.6215 41.7462 38.4246C41.8569 39.2277 42.0785 39.8508 42.4108 40.2938C42.7431 40.7369 43.2138 41.0277 43.8231 41.1662C44.46 41.3046 45.2908 41.3877 46.3154 41.4154V43.0769H30.6969V41.4154C31.7215 41.3877 32.5385 41.3046 33.1477 41.1662C33.7846 41 34.2692 40.7092 34.6015 40.2938C34.9615 39.8785 35.1969 39.2969 35.3077 38.5492C35.4185 37.7738 35.4738 36.7354 35.4738 35.4338V15.9938H35.2662L24.0923 43.4923H21.0185L9.47077 15.9938H9.30462V35.1431C9.30462 36.5277 9.36 37.6215 9.47077 38.4246C9.58154 39.2277 9.80308 39.8508 10.1354 40.2938C10.4677 40.7369 10.9385 41.0277 11.5477 41.1662C12.1846 41.3046 13.0154 41.3877 14.04 41.4154V43.0769H1.24615V41.4154C2.27077 41.3877 3.10154 41.3046 3.73846 41.1662C4.37539 41 4.86 40.7092 5.19231 40.2938C5.55231 39.8785 5.78769 39.2969 5.89846 38.5492C6.00923 37.7738 6.06462 36.7354 6.06462 35.4338V18.7354C6.06462 17.5723 6.00923 16.6031 5.89846 15.8277C5.78769 15.0523 5.58 14.4431 5.27539 14C4.97077 13.5292 4.52769 13.2108 3.94615 13.0446C3.39231 12.8508 2.64462 12.7538 1.70308 12.7538V11.0923H14.2892L23.9677 35.3092H24.1338ZM57.2854 20.6462C58.947 20.6462 60.5116 20.9369 61.9793 21.5185C63.4747 22.0723 64.7762 22.8477 65.8839 23.8446C67.0193 24.8415 67.9054 26.0323 68.5424 27.4169C69.207 28.7738 69.5393 30.2692 69.5393 31.9031C69.5393 33.5923 69.207 35.1431 68.5424 36.5554C67.9054 37.9677 67.0193 39.1862 65.8839 40.2108C64.7762 41.2354 63.4747 42.0385 61.9793 42.62C60.5116 43.2015 58.947 43.4923 57.2854 43.4923C55.6516 43.4923 54.1008 43.2154 52.6331 42.6615C51.1654 42.08 49.8777 41.2769 48.7701 40.2523C47.6624 39.2277 46.7901 38.0092 46.1531 36.5969C45.5162 35.1569 45.1977 33.5923 45.1977 31.9031C45.1977 30.2692 45.5162 28.76 46.1531 27.3754C46.7901 25.9908 47.6624 24.8 48.7701 23.8031C49.8777 22.8062 51.1654 22.0308 52.6331 21.4769C54.1008 20.9231 55.6516 20.6462 57.2854 20.6462ZM57.2854 23.0554C56.4547 23.0554 55.6931 23.2769 55.0008 23.72C54.3085 24.1354 53.7131 24.7308 53.2147 25.5062C52.7439 26.2815 52.3701 27.2231 52.0931 28.3308C51.8439 29.4108 51.7193 30.6154 51.7193 31.9446C51.7193 33.3292 51.8439 34.5754 52.0931 35.6831C52.3701 36.7908 52.7439 37.7323 53.2147 38.5077C53.7131 39.2831 54.2947 39.8923 54.9593 40.3354C55.6516 40.7508 56.427 40.9585 57.2854 40.9585C58.1439 40.9585 58.9193 40.7508 59.6116 40.3354C60.3316 39.8923 60.9408 39.2831 61.4393 38.5077C61.9377 37.7046 62.3254 36.7492 62.6024 35.6415C62.8793 34.5338 63.0177 33.3015 63.0177 31.9446C63.0177 30.6154 62.8793 29.4108 62.6024 28.3308C62.3254 27.2508 61.9377 26.3231 61.4393 25.5477C60.9408 24.7446 60.3316 24.1354 59.6116 23.72C58.9193 23.2769 58.1439 23.0554 57.2854 23.0554ZM78.8504 36.3062C78.8504 37.4415 78.8781 38.3415 78.9335 39.0062C79.0165 39.6431 79.1689 40.1415 79.3904 40.5015C79.6396 40.8338 79.9996 41.0554 80.4704 41.1662C80.9689 41.2769 81.6335 41.36 82.4642 41.4154V43.0769H69.3796V41.4154C70.1827 41.36 70.8196 41.2769 71.2904 41.1662C71.7888 41.0554 72.1627 40.8338 72.4119 40.5015C72.6888 40.1692 72.8688 39.6985 72.9519 39.0892C73.035 38.48 73.0765 37.6492 73.0765 36.5969V31.4046C73.0765 29.7708 73.0488 28.4554 72.9935 27.4585C72.9381 26.4338 72.8688 25.7415 72.7858 25.3815C72.7027 25.0215 72.5919 24.7308 72.4535 24.5092C72.315 24.26 72.1073 24.08 71.8304 23.9692C71.5535 23.8308 71.2073 23.7477 70.7919 23.72C70.3765 23.6646 69.8504 23.6369 69.2135 23.6369V22.2246L77.2304 20.6462L77.7704 24.3015H77.9365C78.8504 23.1385 79.9304 22.2385 81.1765 21.6015C82.4227 20.9646 83.7935 20.6462 85.2889 20.6462C87.0612 20.6462 88.4873 20.8954 89.5673 21.3938C90.675 21.8646 91.6581 22.6677 92.5165 23.8031C92.9873 24.44 93.4027 25.2708 93.7627 26.2954C94.1227 27.2923 94.3027 28.6769 94.3027 30.4492V36.3062C94.3027 37.4415 94.3304 38.3415 94.3858 39.0062C94.4689 39.6431 94.6212 40.1415 94.8427 40.5015C95.0919 40.8338 95.4519 41.0554 95.9227 41.1662C96.3935 41.2769 97.0304 41.36 97.8335 41.4154V43.0769H84.8319V41.4154C85.6627 41.3877 86.3135 41.3185 86.7842 41.2077C87.2827 41.0692 87.6565 40.8338 87.9058 40.5015C88.155 40.1692 88.3212 39.6985 88.4042 39.0892C88.4873 38.4523 88.5289 37.6215 88.5289 36.5969V30.9477C88.5289 29.5354 88.4458 28.3446 88.2796 27.3754C88.1135 26.4062 87.8365 25.6308 87.4489 25.0492C87.0889 24.44 86.6042 24.0108 85.995 23.7615C85.3858 23.4846 84.6242 23.3462 83.7104 23.3462C82.8242 23.3462 82.0627 23.5954 81.4258 24.0938C80.7889 24.5923 80.235 25.2846 79.7642 26.1708C79.515 26.6692 79.2935 27.32 79.0996 28.1231C78.9335 28.8985 78.8504 29.7154 78.8504 30.5738V36.3062ZM120.064 35.9323L125.464 22.1C125.99 20.7431 126.405 19.6354 126.71 18.7769C127.042 17.9185 127.291 17.2123 127.458 16.6585C127.624 16.1046 127.734 15.6615 127.79 15.3292C127.845 14.9969 127.873 14.6785 127.873 14.3738C127.873 13.7092 127.624 13.28 127.125 13.0862C126.627 12.8646 125.63 12.7538 124.134 12.7538V11.0923H135.931V12.7538C133.633 12.7538 132.041 13.8754 131.154 16.1185L120.23 43.4923H117.156L107.228 19.2338C106.674 17.9323 106.176 16.8662 105.733 16.0354C105.29 15.2046 104.819 14.5538 104.321 14.0831C103.822 13.5846 103.268 13.2523 102.659 13.0862C102.078 12.8923 101.385 12.7954 100.582 12.7954V11.0923H116.284V12.7954C115.564 12.8231 114.954 12.8646 114.456 12.92C113.985 12.9754 113.611 13.0723 113.334 13.2108C113.058 13.3215 112.864 13.4877 112.753 13.7092C112.642 13.9031 112.587 14.1523 112.587 14.4569C112.587 14.8446 112.656 15.3015 112.794 15.8277C112.933 16.3538 113.141 16.9908 113.418 17.7385L120.064 35.9323ZM142.455 36.2646C142.455 37.3723 142.496 38.2585 142.579 38.9231C142.662 39.5877 142.828 40.1 143.078 40.46C143.327 40.82 143.687 41.0692 144.158 41.2077C144.628 41.3185 145.265 41.3877 146.068 41.4154V43.0769H132.984V41.4154C133.759 41.3877 134.382 41.3046 134.853 41.1662C135.351 41 135.725 40.7508 135.975 40.4185C136.251 40.0585 136.431 39.5738 136.515 38.9646C136.625 38.3277 136.681 37.5246 136.681 36.5554V31.4462C136.681 29.84 136.653 28.5246 136.598 27.5C136.542 26.4477 136.473 25.7277 136.39 25.34C136.251 24.6477 135.933 24.1908 135.435 23.9692C134.964 23.7477 134.091 23.6369 132.818 23.6369V22.2246L142.455 20.6462V36.2646ZM136.348 11.84C136.348 10.9262 136.653 10.1646 137.262 9.55538C137.899 8.91846 138.661 8.6 139.547 8.6C140.461 8.6 141.222 8.91846 141.831 9.55538C142.468 10.1646 142.787 10.9262 142.787 11.84C142.787 12.7262 142.468 13.4877 141.831 14.1246C141.222 14.7338 140.461 15.0385 139.547 15.0385C138.661 15.0385 137.899 14.7338 137.262 14.1246C136.653 13.4877 136.348 12.7262 136.348 11.84ZM166.311 39.2138C163.791 42.0662 160.648 43.4923 156.882 43.4923C155.165 43.4923 153.6 43.2292 152.188 42.7031C150.804 42.1492 149.613 41.3877 148.616 40.4185C147.619 39.4215 146.844 38.2446 146.29 36.8877C145.736 35.5308 145.459 34.0215 145.459 32.36C145.459 30.6431 145.75 29.0785 146.331 27.6662C146.913 26.2262 147.73 24.9938 148.782 23.9692C149.862 22.9169 151.122 22.1 152.562 21.5185C154.03 20.9369 155.636 20.6462 157.38 20.6462C160.316 20.6462 162.6 21.4354 164.234 23.0138C165.868 24.5923 166.685 26.8077 166.685 29.66C166.685 30.1031 166.616 30.38 166.477 30.4908C166.339 30.5738 165.951 30.6154 165.314 30.6154H151.939C151.828 30.8646 151.773 31.3215 151.773 31.9862C151.773 34.7 152.354 36.8462 153.517 38.4246C154.708 40.0031 156.314 40.7923 158.336 40.7923C159.499 40.7923 160.648 40.5292 161.784 40.0031C162.947 39.4769 164.068 38.7292 165.148 37.76L166.311 39.2138ZM158.253 28.2892C159.36 28.2892 160.067 28.2338 160.371 28.1231C160.704 27.9846 160.87 27.68 160.87 27.2092C160.87 25.9908 160.524 24.9938 159.831 24.2185C159.139 23.4431 158.267 23.0554 157.214 23.0554C156.024 23.0554 154.957 23.5538 154.016 24.5508C153.102 25.52 152.507 26.7662 152.23 28.2892H158.253ZM184.587 27.8738C184.587 26.7662 184.559 25.8938 184.503 25.2569C184.448 24.5923 184.296 24.0938 184.047 23.7615C183.797 23.4015 183.423 23.1662 182.925 23.0554C182.454 22.9169 181.803 22.8062 180.973 22.7231V21.0615H190.36V33.6477C190.36 35.3369 190.374 36.6662 190.402 37.6354C190.457 38.5769 190.54 39.2831 190.651 39.7538C190.734 40.1138 190.831 40.4046 190.942 40.6262C191.053 40.82 191.233 40.9862 191.482 41.1246C191.731 41.2354 192.063 41.3185 192.479 41.3738C192.922 41.4015 193.49 41.4154 194.182 41.4154V43.0354L185.916 43.5338L185.459 39.8369H185.293C184.573 41 183.562 41.9 182.26 42.5369C180.959 43.1738 179.505 43.4923 177.899 43.4923C174.936 43.4923 172.679 42.44 171.128 40.3354C169.937 38.7292 169.342 36.4446 169.342 33.4815V27.8738C169.342 26.7385 169.314 25.8523 169.259 25.2154C169.203 24.5508 169.051 24.0523 168.802 23.72C168.58 23.3877 168.234 23.1662 167.763 23.0554C167.293 22.9169 166.642 22.8062 165.811 22.7231V21.0615H175.116V32.8169C175.116 35.6138 175.462 37.6492 176.154 38.9231C176.847 40.1692 177.954 40.7923 179.477 40.7923C181.111 40.7923 182.371 40.0446 183.257 38.5492C184.143 37.1092 184.587 34.9908 184.587 32.1938V27.8738ZM208.678 26.2954C209.26 25.5477 209.647 25.0215 209.841 24.7169C210.035 24.4123 210.132 24.1077 210.132 23.8031C210.132 23.4154 209.966 23.1385 209.634 22.9723C209.329 22.8062 208.803 22.7231 208.055 22.7231V21.0615H217.609V22.7231C217.083 22.7508 216.612 22.8062 216.197 22.8892C215.781 22.9723 215.366 23.1385 214.951 23.3877C214.535 23.6092 214.106 23.9277 213.663 24.3431C213.22 24.7585 212.707 25.2985 212.126 25.9631L207.889 30.8646L214.452 39.2969C215.089 40.1277 215.712 40.6954 216.321 41C216.931 41.2769 217.692 41.4154 218.606 41.4154V43.0769H205.397V41.4154C206.2 41.4154 206.754 41.3462 207.058 41.2077C207.391 41.0692 207.557 40.8062 207.557 40.4185C207.557 40.1138 207.46 39.7954 207.266 39.4631C207.072 39.1031 206.781 38.6462 206.394 38.0923L203.984 34.7692L202.157 36.9708C201.686 37.5523 201.312 38.0231 201.035 38.3831C200.758 38.7431 200.551 39.0338 200.412 39.2554C200.274 39.4769 200.177 39.6569 200.121 39.7954C200.094 39.9062 200.08 40.0169 200.08 40.1277C200.08 40.5985 200.274 40.9308 200.661 41.1246C201.077 41.3185 201.727 41.4154 202.614 41.4154V43.0769H192.187V41.4154C193.074 41.4154 193.932 41.2908 194.763 41.0415C195.594 40.7646 196.244 40.3492 196.715 39.7954L202.489 33.0246L195.552 24.2185C195.026 23.5538 194.555 23.1385 194.14 22.9723C193.752 22.8062 193.212 22.7231 192.52 22.7231V21.0615H205.189V22.7231C203.777 22.7231 203.071 23.1108 203.071 23.8862C203.071 24.1631 203.223 24.5231 203.527 24.9662L206.477 29.12L208.678 26.2954ZM241.633 43.4923C239.141 43.4923 236.884 43.1323 234.863 42.4123C232.869 41.6646 231.166 40.6123 229.753 39.2554C228.369 37.8708 227.289 36.2092 226.513 34.2708C225.766 32.3046 225.392 30.1031 225.392 27.6662C225.392 25.1462 225.793 22.8477 226.597 20.7708C227.427 18.6662 228.577 16.8662 230.044 15.3708C231.512 13.8754 233.27 12.7262 235.32 11.9231C237.369 11.0923 239.64 10.6769 242.132 10.6769C243.849 10.6769 245.483 10.9123 247.033 11.3831C248.584 11.8538 250.26 12.6154 252.06 13.6677L252.849 11.0923H254.344V21.6015H252.267C251.713 18.9985 250.592 16.9769 248.903 15.5369C247.241 14.0969 245.15 13.3769 242.63 13.3769C239.446 13.3769 236.967 14.6092 235.195 17.0738C233.45 19.5108 232.578 22.9308 232.578 27.3338C232.578 31.6538 233.437 34.9631 235.153 37.2615C236.87 39.56 239.363 40.7092 242.63 40.7092C244.984 40.7092 246.812 40.1138 248.113 38.9231C249.443 37.7046 250.107 36.0292 250.107 33.8969C250.107 32.6231 249.775 31.6954 249.11 31.1138C248.446 30.5046 247.324 30.1308 245.746 29.9923V28.3308H259.204V29.9923C257.847 29.9923 256.906 30.2969 256.38 30.9062C255.853 31.4877 255.59 32.5538 255.59 34.1046V39.6292C254.981 39.6292 254.469 39.6569 254.053 39.7123C253.638 39.74 253.223 39.8231 252.807 39.9615C252.42 40.0723 251.977 40.2662 251.478 40.5431C250.98 40.82 250.357 41.18 249.609 41.6231C247.477 42.8692 244.818 43.4923 241.633 43.4923ZM267.636 36.6385C267.636 37.7185 267.677 38.5769 267.76 39.2138C267.871 39.8231 268.079 40.2938 268.383 40.6262C268.688 40.9585 269.131 41.18 269.712 41.2908C270.294 41.3738 271.069 41.4154 272.039 41.4154V43.0769H258.165V41.4154C258.996 41.36 259.66 41.2769 260.159 41.1662C260.657 41.0554 261.031 40.8338 261.28 40.5015C261.529 40.1692 261.682 39.6985 261.737 39.0892C261.82 38.4523 261.862 37.6077 261.862 36.5554V31.4877C261.862 29.7708 261.82 28.4 261.737 27.3754C261.654 26.3508 261.474 25.5615 261.197 25.0077C260.92 24.4538 260.519 24.0938 259.992 23.9277C259.494 23.7338 258.829 23.6369 257.999 23.6369V22.1831L266.306 20.6462L266.971 25.4231H267.137C267.885 23.9554 268.868 22.7923 270.086 21.9338C271.305 21.0754 272.592 20.6462 273.949 20.6462C275.002 20.6462 275.86 20.9092 276.525 21.4354C277.189 21.9615 277.522 22.6262 277.522 23.4292C277.522 24.3154 277.259 25.0631 276.732 25.6723C276.234 26.2815 275.542 26.5862 274.656 26.5862C274.24 26.5862 273.866 26.5031 273.534 26.3369C273.202 26.1708 272.897 25.9908 272.62 25.7969C272.371 25.5754 272.108 25.3815 271.831 25.2154C271.582 25.0215 271.319 24.9246 271.042 24.9246C270.516 24.9246 270.017 25.2708 269.546 25.9631C269.076 26.6554 268.688 27.5831 268.383 28.7462C268.162 29.5769 267.982 30.5185 267.843 31.5708C267.705 32.5954 267.636 33.62 267.636 34.6446V36.6385ZM285.374 36.2646C285.374 37.3723 285.416 38.2585 285.499 38.9231C285.582 39.5877 285.748 40.1 285.997 40.46C286.247 40.82 286.607 41.0692 287.077 41.2077C287.548 41.3185 288.185 41.3877 288.988 41.4154V43.0769H275.904V41.4154C276.679 41.3877 277.302 41.3046 277.773 41.1662C278.271 41 278.645 40.7508 278.894 40.4185C279.171 40.0585 279.351 39.5738 279.434 38.9646C279.545 38.3277 279.601 37.5246 279.601 36.5554V31.4462C279.601 29.84 279.573 28.5246 279.517 27.5C279.462 26.4477 279.393 25.7277 279.31 25.34C279.171 24.6477 278.853 24.1908 278.354 23.9692C277.884 23.7477 277.011 23.6369 275.737 23.6369V22.2246L285.374 20.6462V36.2646ZM279.268 11.84C279.268 10.9262 279.573 10.1646 280.182 9.55538C280.819 8.91846 281.581 8.6 282.467 8.6C283.381 8.6 284.142 8.91846 284.751 9.55538C285.388 10.1646 285.707 10.9262 285.707 11.84C285.707 12.7262 285.388 13.4877 284.751 14.1246C284.142 14.7338 283.381 15.0385 282.467 15.0385C281.581 15.0385 280.819 14.7338 280.182 14.1246C279.573 13.4877 279.268 12.7262 279.268 11.84ZM297.517 36.2231C297.517 37.3862 297.545 38.3 297.6 38.9646C297.656 39.6292 297.808 40.1415 298.057 40.5015C298.307 40.8338 298.667 41.0554 299.137 41.1662C299.608 41.2769 300.259 41.36 301.09 41.4154V43.0769H287.963V41.4154C288.794 41.36 289.459 41.2769 289.957 41.1662C290.456 41.0554 290.83 40.8338 291.079 40.5015C291.328 40.1692 291.494 39.6985 291.577 39.0892C291.66 38.4523 291.702 37.6077 291.702 36.5554V31.4046C291.702 29.8262 291.674 28.5108 291.619 27.4585C291.591 26.4062 291.522 25.6862 291.411 25.2985C291.328 24.9385 291.217 24.6615 291.079 24.4677C290.968 24.2462 290.774 24.08 290.497 23.9692C290.248 23.8308 289.916 23.7477 289.5 23.72C289.085 23.6646 288.545 23.6369 287.88 23.6369V22.2246L295.897 20.6462L296.396 24.26H296.645C297.808 22.9585 298.971 22.0308 300.134 21.4769C301.325 20.9231 302.696 20.6462 304.247 20.6462C306.074 20.6462 307.583 20.9646 308.774 21.6015C309.965 22.2385 310.865 23.1523 311.474 24.3431H311.64C312.637 23.18 313.828 22.28 315.213 21.6431C316.597 20.9785 318.079 20.6462 319.657 20.6462C321.319 20.6462 322.759 20.8538 323.977 21.2692C325.223 21.6846 326.193 22.28 326.885 23.0554C327.439 23.6923 327.84 24.5231 328.09 25.5477C328.367 26.5723 328.505 27.9985 328.505 29.8262V36.2231C328.505 37.3585 328.533 38.2585 328.588 38.9231C328.671 39.5877 328.837 40.1 329.087 40.46C329.336 40.82 329.696 41.0554 330.167 41.1662C330.637 41.2769 331.288 41.36 332.119 41.4154V43.0769H318.993V41.4154C319.823 41.3877 320.474 41.3185 320.945 41.2077C321.443 41.0692 321.817 40.8338 322.067 40.5015C322.343 40.1415 322.51 39.6569 322.565 39.0477C322.648 38.4385 322.69 37.6077 322.69 36.5554V31.1138C322.69 29.6738 322.607 28.4554 322.44 27.4585C322.274 26.4615 322.011 25.6585 321.651 25.0492C321.291 24.44 320.807 24.0108 320.197 23.7615C319.616 23.4846 318.896 23.3462 318.037 23.3462C317.068 23.3462 316.265 23.5815 315.628 24.0523C315.019 24.5231 314.507 25.1323 314.091 25.88C313.371 27.1815 313.011 28.8015 313.011 30.74V36.2231C313.011 37.3585 313.039 38.2585 313.094 38.9231C313.15 39.5877 313.302 40.1 313.551 40.46C313.8 40.82 314.16 41.0554 314.631 41.1662C315.13 41.2769 315.808 41.36 316.667 41.4154V43.0769H303.499V41.4154C304.33 41.36 304.98 41.2769 305.451 41.1662C305.95 41.0554 306.323 40.8338 306.573 40.5015C306.85 40.1692 307.016 39.6985 307.071 39.0892C307.154 38.4523 307.196 37.6077 307.196 36.5554V31.1138C307.196 29.6738 307.113 28.4554 306.947 27.4585C306.78 26.4615 306.503 25.6585 306.116 25.0492C305.756 24.44 305.271 24.0108 304.662 23.7615C304.053 23.4846 303.291 23.3462 302.377 23.3462C301.463 23.3462 300.702 23.5677 300.093 24.0108C299.511 24.4538 299.027 25.0492 298.639 25.7969C298.279 26.4615 298.002 27.2231 297.808 28.0815C297.614 28.94 297.517 29.8262 297.517 30.74V36.2231ZM343.477 20.6462C345.139 20.6462 346.703 20.9369 348.171 21.5185C349.667 22.0723 350.968 22.8477 352.076 23.8446C353.211 24.8415 354.097 26.0323 354.734 27.4169C355.399 28.7738 355.731 30.2692 355.731 31.9031C355.731 33.5923 355.399 35.1431 354.734 36.5554C354.097 37.9677 353.211 39.1862 352.076 40.2108C350.968 41.2354 349.667 42.0385 348.171 42.62C346.703 43.2015 345.139 43.4923 343.477 43.4923C341.843 43.4923 340.293 43.2154 338.825 42.6615C337.357 42.08 336.07 41.2769 334.962 40.2523C333.854 39.2277 332.982 38.0092 332.345 36.5969C331.708 35.1569 331.39 33.5923 331.39 31.9031C331.39 30.2692 331.708 28.76 332.345 27.3754C332.982 25.9908 333.854 24.8 334.962 23.8031C336.07 22.8062 337.357 22.0308 338.825 21.4769C340.293 20.9231 341.843 20.6462 343.477 20.6462ZM343.477 23.0554C342.647 23.0554 341.885 23.2769 341.193 23.72C340.5 24.1354 339.905 24.7308 339.407 25.5062C338.936 26.2815 338.562 27.2231 338.285 28.3308C338.036 29.4108 337.911 30.6154 337.911 31.9446C337.911 33.3292 338.036 34.5754 338.285 35.6831C338.562 36.7908 338.936 37.7323 339.407 38.5077C339.905 39.2831 340.487 39.8923 341.151 40.3354C341.843 40.7508 342.619 40.9585 343.477 40.9585C344.336 40.9585 345.111 40.7508 345.803 40.3354C346.523 39.8923 347.133 39.2831 347.631 38.5077C348.13 37.7046 348.517 36.7492 348.794 35.6415C349.071 34.5338 349.21 33.3015 349.21 31.9446C349.21 30.6154 349.071 29.4108 348.794 28.3308C348.517 27.2508 348.13 26.3231 347.631 25.5477C347.133 24.7446 346.523 24.1354 345.803 23.72C345.111 23.2769 344.336 23.0554 343.477 23.0554ZM365.042 36.2646C365.042 37.3723 365.084 38.2585 365.167 38.9231C365.25 39.5877 365.416 40.1 365.665 40.46C365.915 40.82 366.275 41.0692 366.745 41.2077C367.216 41.3185 367.853 41.3877 368.656 41.4154V43.0769H355.572V41.4154C356.347 41.3877 356.97 41.3046 357.441 41.1662C357.939 41 358.313 40.7508 358.562 40.4185C358.839 40.0585 359.019 39.5738 359.102 38.9646C359.213 38.3277 359.268 37.5246 359.268 36.5554V31.4462C359.268 29.84 359.241 28.5246 359.185 27.5C359.13 26.4477 359.061 25.7277 358.978 25.34C358.839 24.6477 358.521 24.1908 358.022 23.9692C357.552 23.7477 356.679 23.6369 355.405 23.6369V22.2246L365.042 20.6462V36.2646ZM358.936 11.84C358.936 10.9262 359.241 10.1646 359.85 9.55538C360.487 8.91846 361.248 8.6 362.135 8.6C363.048 8.6 363.81 8.91846 364.419 9.55538C365.056 10.1646 365.375 10.9262 365.375 11.84C365.375 12.7262 365.056 13.4877 364.419 14.1246C363.81 14.7338 363.048 15.0385 362.135 15.0385C361.248 15.0385 360.487 14.7338 359.85 14.1246C359.241 13.4877 358.936 12.7262 358.936 11.84ZM377.185 36.6385C377.185 37.7185 377.227 38.5769 377.31 39.2138C377.421 39.8231 377.628 40.2938 377.933 40.6262C378.237 40.9585 378.681 41.18 379.262 41.2908C379.844 41.3738 380.619 41.4154 381.588 41.4154V43.0769H367.714V41.4154C368.545 41.36 369.21 41.2769 369.708 41.1662C370.207 41.0554 370.581 40.8338 370.83 40.5015C371.079 40.1692 371.231 39.6985 371.287 39.0892C371.37 38.4523 371.411 37.6077 371.411 36.5554V31.4877C371.411 29.7708 371.37 28.4 371.287 27.3754C371.204 26.3508 371.024 25.5615 370.747 25.0077C370.47 24.4538 370.068 24.0938 369.542 23.9277C369.044 23.7338 368.379 23.6369 367.548 23.6369V22.1831L375.856 20.6462L376.521 25.4231H376.687C377.434 23.9554 378.417 22.7923 379.636 21.9338C380.854 21.0754 382.142 20.6462 383.499 20.6462C384.551 20.6462 385.41 20.9092 386.074 21.4354C386.739 21.9615 387.071 22.6262 387.071 23.4292C387.071 24.3154 386.808 25.0631 386.282 25.6723C385.784 26.2815 385.091 26.5862 384.205 26.5862C383.79 26.5862 383.416 26.5031 383.084 26.3369C382.751 26.1708 382.447 25.9908 382.17 25.7969C381.921 25.5754 381.657 25.3815 381.381 25.2154C381.131 25.0215 380.868 24.9246 380.591 24.9246C380.065 24.9246 379.567 25.2708 379.096 25.9631C378.625 26.6554 378.237 27.5831 377.933 28.7462C377.711 29.5769 377.531 30.5185 377.393 31.5708C377.254 32.5954 377.185 33.62 377.185 34.6446V36.6385ZM406.436 39.2138C403.916 42.0662 400.773 43.4923 397.007 43.4923C395.29 43.4923 393.725 43.2292 392.313 42.7031C390.928 42.1492 389.738 41.3877 388.741 40.4185C387.744 39.4215 386.968 38.2446 386.414 36.8877C385.861 35.5308 385.584 34.0215 385.584 32.36C385.584 30.6431 385.874 29.0785 386.456 27.6662C387.038 26.2262 387.854 24.9938 388.907 23.9692C389.987 22.9169 391.247 22.1 392.687 21.5185C394.154 20.9369 395.761 20.6462 397.505 20.6462C400.441 20.6462 402.725 21.4354 404.359 23.0138C405.993 24.5923 406.81 26.8077 406.81 29.66C406.81 30.1031 406.741 30.38 406.602 30.4908C406.464 30.5738 406.076 30.6154 405.439 30.6154H392.064C391.953 30.8646 391.898 31.3215 391.898 31.9862C391.898 34.7 392.479 36.8462 393.642 38.4246C394.833 40.0031 396.439 40.7923 398.461 40.7923C399.624 40.7923 400.773 40.5292 401.908 40.0031C403.071 39.4769 404.193 38.7292 405.273 37.76L406.436 39.2138ZM398.378 28.2892C399.485 28.2892 400.191 28.2338 400.496 28.1231C400.828 27.9846 400.994 27.68 400.994 27.2092C400.994 25.9908 400.648 24.9938 399.956 24.2185C399.264 23.4431 398.391 23.0554 397.339 23.0554C396.148 23.0554 395.082 23.5538 394.141 24.5508C393.227 25.52 392.631 26.7662 392.354 28.2892H398.378Z" fill="#2C1810"/>
<rect x="416.163" y="9.08654" width="10.9038" height="35.8269" rx="1.29808" stroke="#2C1810" stroke-width="1.55769"/>
<rect x="428.35" y="11.3151" width="11.5317" height="35.8269" rx="1.29808" transform="rotate(-15 428.35 11.3151)" stroke="#2C1810" stroke-width="1.55769"/>
</svg>
